<svg width="30" height="30" viewBox="0 0 30 30" fill="none" xmlns="http://www.w3.org/2000/svg">
<path d="M4.66504 8.37C4.94118 8.37 5.16504 8.14614 5.16504 7.87C5.16504 7.59385 4.94118 7.37 4.66504 7.37C4.3889 7.37 4.16504 7.59385 4.16504 7.87C4.16504 8.14614 4.3889 8.37 4.66504 8.37Z" fill="#818181"/>
<path d="M8 8.37C8.27614 8.37 8.5 8.14614 8.5 7.87C8.5 7.59385 8.27614 7.37 8 7.37C7.72386 7.37 7.5 7.59385 7.5 7.87C7.5 8.14614 7.72386 8.37 8 8.37Z" fill="#818181"/>
<path d="M6.33496 8.37C6.6111 8.37 6.83496 8.14614 6.83496 7.87C6.83496 7.59385 6.6111 7.37 6.33496 7.37C6.05882 7.37 5.83496 7.59385 5.83496 7.87C5.83496 8.14614 6.05882 8.37 6.33496 8.37Z" fill="#818181"/>
<path d="M9.99994 15.125L11.4999 13.625C11.5941 13.5308 11.647 13.4031 11.647 13.27C11.647 13.1368 11.5941 13.0091 11.4999 12.915C11.4058 12.8208 11.2781 12.7679 11.1449 12.7679C11.0118 12.7679 10.8841 12.8208 10.7899 12.915L8.92994 14.78C8.83682 14.8737 8.78455 15.0004 8.78455 15.1325C8.78455 15.2646 8.83682 15.3913 8.92994 15.485L10.7899 17.35C10.8364 17.3969 10.8917 17.4341 10.9527 17.4594C11.0136 17.4848 11.0789 17.4979 11.1449 17.4979C11.2109 17.4979 11.2763 17.4848 11.3372 17.4594C11.3982 17.4341 11.4535 17.3969 11.4999 17.35C11.5931 17.2563 11.6453 17.1296 11.6453 16.9975C11.6453 16.8654 11.5931 16.7387 11.4999 16.645L9.99994 15.125Z" fill="#818181"/>
<path d="M17.16 17.34C17.2537 17.4331 17.3804 17.4854 17.5125 17.4854C17.6446 17.4854 17.7713 17.4331 17.865 17.34L19.73 15.5C19.8231 15.4063 19.8754 15.2796 19.8754 15.1475C19.8754 15.0154 19.8231 14.8887 19.73 14.795L17.865 12.93C17.7708 12.8365 17.6434 12.7843 17.5107 12.7847C17.378 12.7852 17.251 12.8384 17.1575 12.9325C17.064 13.0267 17.0117 13.1541 17.0122 13.2868C17.0127 13.4195 17.0658 13.5465 17.16 13.64L18.66 15.14L17.16 16.64C17.0684 16.7335 17.0171 16.8591 17.0171 16.99C17.0171 17.1209 17.0684 17.2465 17.16 17.34Z" fill="#818181"/>
<path d="M15.5 13.075C15.4429 13.0419 15.3799 13.0205 15.3145 13.0119C15.2491 13.0033 15.1827 13.0077 15.119 13.0249C15.0553 13.0421 14.9957 13.0717 14.9435 13.1121C14.8914 13.1524 14.8477 13.2027 14.815 13.26L12.97 16.5C12.9338 16.5569 12.9095 16.6205 12.8986 16.6871C12.8877 16.7536 12.8903 16.8217 12.9063 16.8872C12.9224 16.9527 12.9515 17.0143 12.992 17.0682C13.0324 17.1222 13.0834 17.1674 13.1417 17.2011C13.2001 17.2349 13.2647 17.2564 13.3317 17.2646C13.3986 17.2727 13.4665 17.2672 13.5313 17.2484C13.596 17.2296 13.6563 17.1979 13.7085 17.1552C13.7607 17.1125 13.8038 17.0597 13.835 17L15.7 13.775C15.7349 13.7164 15.7574 13.6513 15.7662 13.5837C15.775 13.5161 15.7699 13.4474 15.7512 13.3818C15.7324 13.3162 15.7005 13.2552 15.6573 13.2024C15.6141 13.1497 15.5606 13.1063 15.5 13.075Z" fill="#818181"/>
<path d="M27.93 20C27.9005 19.9998 27.8718 19.9906 27.8477 19.9736C27.8235 19.9566 27.8052 19.9327 27.795 19.905C27.596 19.3816 27.3141 18.8937 26.96 18.46C26.9432 18.4358 26.9342 18.407 26.9342 18.3775C26.9342 18.348 26.9432 18.3192 26.96 18.295C27.1123 18.0311 27.1536 17.7175 27.0748 17.4231C26.9961 17.1287 26.8037 16.8776 26.54 16.725L26.165 16.5V7.37C26.165 6.97217 26.007 6.59064 25.7257 6.30934C25.4444 6.02803 25.0628 5.87 24.665 5.87H4C3.60218 5.87 3.22064 6.02803 2.93934 6.30934C2.65804 6.59064 2.5 6.97217 2.5 7.37V20.04C2.50132 20.3486 2.62448 20.6441 2.84267 20.8623C3.06087 21.0805 3.35643 21.2037 3.665 21.205H10.5L10 23.055H9.335C8.848 23.0553 8.37533 23.2198 7.99337 23.522C7.61141 23.8241 7.34247 24.2462 7.23 24.72H6C5.86739 24.72 5.74021 24.7727 5.64645 24.8664C5.55268 24.9602 5.5 25.0874 5.5 25.22C5.5 25.3526 5.55268 25.4798 5.64645 25.5735C5.74021 25.6673 5.86739 25.72 6 25.72H18.735C18.7265 25.8395 18.7384 25.9595 18.77 26.075C18.8075 26.2217 18.8742 26.3593 18.9661 26.4795C19.0581 26.5998 19.1733 26.7003 19.305 26.775L20.36 27.385C20.491 27.4602 20.6355 27.5088 20.7853 27.5282C20.9351 27.5475 21.0872 27.5372 21.233 27.4977C21.3788 27.4582 21.5154 27.3904 21.635 27.2982C21.7546 27.2059 21.8548 27.091 21.93 26.96C21.9462 26.9345 21.9695 26.9143 21.997 26.9018C22.0246 26.8894 22.0552 26.8853 22.085 26.89C22.6343 26.985 23.1957 26.985 23.745 26.89C23.7754 26.8851 23.8066 26.8896 23.8343 26.903C23.8621 26.9165 23.885 26.9381 23.9 26.965C24.0019 27.1395 24.148 27.284 24.3236 27.3841C24.4991 27.4842 24.6979 27.5362 24.9 27.535C25.1016 27.5369 25.3001 27.4852 25.475 27.385L26.53 26.775C26.661 26.6994 26.7757 26.5987 26.8675 26.4785C26.9593 26.3584 27.0265 26.2212 27.065 26.075C27.1048 25.9296 27.1152 25.7778 27.0954 25.6284C27.0757 25.479 27.0262 25.335 26.95 25.205C26.9328 25.18 26.9236 25.1503 26.9236 25.12C26.9236 25.0896 26.9328 25.06 26.95 25.035C27.303 24.6024 27.5849 24.1163 27.785 23.595C27.7945 23.5669 27.8127 23.5426 27.837 23.5255C27.8613 23.5084 27.8903 23.4995 27.92 23.5C28.2246 23.4987 28.5163 23.3771 28.7317 23.1617C28.9471 22.9463 29.0687 22.6546 29.07 22.35V21.13C29.0648 20.8302 28.9427 20.5443 28.7298 20.3332C28.5168 20.1221 28.2298 20.0026 27.93 20ZM3.5 7.37C3.5 7.23739 3.55268 7.11021 3.64645 7.01644C3.74021 6.92267 3.86739 6.87 4 6.87H24.665C24.7976 6.87 24.9248 6.92267 25.0186 7.01644C25.1123 7.11021 25.165 7.23739 25.165 7.37V8.87H3.5V7.37ZM3.665 20.205C3.64333 20.205 3.62188 20.2007 3.60186 20.1924C3.58184 20.1841 3.56365 20.172 3.54833 20.1567C3.53301 20.1413 3.52085 20.1232 3.51256 20.1031C3.50427 20.0831 3.5 20.0617 3.5 20.04V9.87H25.165V16C24.9284 15.9372 24.6779 15.9518 24.4502 16.0418C24.2225 16.1318 24.0297 16.2924 23.9 16.5C23.8844 16.5247 23.8618 16.5441 23.835 16.5556C23.8083 16.5672 23.7786 16.5705 23.75 16.565C23.2003 16.475 22.6397 16.475 22.09 16.565C22.0613 16.5712 22.0314 16.5683 22.0045 16.5567C21.9776 16.545 21.955 16.5252 21.94 16.5C21.8649 16.3689 21.7646 16.254 21.6449 16.1619C21.5251 16.0697 21.3884 16.0022 21.2424 15.9631C21.0965 15.9241 20.9443 15.9143 20.7945 15.9344C20.6448 15.9544 20.5005 16.0039 20.37 16.08L19.315 16.69C19.1837 16.7639 19.0686 16.8635 18.9766 16.9829C18.8847 17.1024 18.8178 17.2391 18.78 17.385C18.7 17.6798 18.7396 17.9942 18.89 18.26C18.9082 18.2836 18.9181 18.3126 18.9181 18.3425C18.9181 18.3724 18.9082 18.4014 18.89 18.425C18.5359 18.8587 18.254 19.3466 18.055 19.87C18.0448 19.8977 18.0265 19.9216 18.0023 19.9386C17.9782 19.9556 17.9495 19.9648 17.92 19.965C17.6751 19.9653 17.4368 20.0442 17.24 20.19L3.665 20.205ZM17 23.055H11L11.5 21.205H16.75V22.35C16.7532 22.6062 16.8411 22.854 17 23.055ZM9.34 24.055H18.24C18.3543 24.2855 18.4846 24.5077 18.63 24.72H8.285C8.3794 24.5213 8.5281 24.3535 8.71391 24.2358C8.89973 24.1181 9.11506 24.0554 9.335 24.055H9.34ZM28.08 22.35C28.08 22.3898 28.0642 22.4279 28.0361 22.4561C28.0079 22.4842 27.9698 22.5 27.93 22.5C27.6971 22.5006 27.4698 22.5715 27.278 22.7036C27.0861 22.8357 26.9387 23.0226 26.855 23.24C26.6952 23.6616 26.469 24.0548 26.185 24.405C26.0386 24.5859 25.9502 24.8068 25.9314 25.0388C25.9127 25.2707 25.9645 25.503 26.08 25.705C26.088 25.7222 26.0922 25.741 26.0922 25.76C26.0922 25.779 26.088 25.7978 26.08 25.815C26.0756 25.8349 26.0672 25.8536 26.0551 25.8699C26.043 25.8863 26.0277 25.9 26.01 25.91L24.97 26.5C24.9526 26.5097 24.9335 26.5158 24.9138 26.518C24.894 26.5202 24.874 26.5185 24.855 26.5129C24.8359 26.5073 24.8181 26.498 24.8027 26.4855C24.7872 26.4729 24.7744 26.4575 24.765 26.44C24.6468 26.2385 24.4702 26.0776 24.2587 25.9785C24.0471 25.8794 23.8105 25.8468 23.58 25.885C23.1398 25.96 22.6902 25.96 22.25 25.885C22.019 25.8473 21.782 25.8806 21.5704 25.9806C21.3588 26.0806 21.1825 26.2426 21.065 26.445C21.0442 26.4785 21.0115 26.5029 20.9734 26.5131C20.9353 26.5233 20.8948 26.5186 20.86 26.5L19.805 25.89C19.7873 25.88 19.772 25.8663 19.7599 25.8499C19.7478 25.8336 19.7394 25.8149 19.735 25.795C19.727 25.7778 19.7228 25.759 19.7228 25.74C19.7228 25.721 19.727 25.7022 19.735 25.685C19.8492 25.4826 19.9002 25.2506 19.8815 25.0189C19.8628 24.7873 19.7752 24.5665 19.63 24.385C19.3435 24.0357 19.1155 23.6423 18.955 23.22C18.8711 23.0084 18.7258 22.8267 18.5378 22.6984C18.3498 22.57 18.1276 22.501 17.9 22.5C17.8602 22.5 17.8221 22.4842 17.7939 22.4561C17.7658 22.4279 17.75 22.3898 17.75 22.35V21.13C17.7493 21.1101 17.7527 21.0903 17.76 21.0718C17.7673 21.0533 17.7783 21.0364 17.7924 21.0224C17.8064 21.0083 17.8233 20.9973 17.8418 20.99C17.8603 20.9827 17.8801 20.9793 17.9 20.98C18.1322 20.9791 18.3587 20.9079 18.5497 20.7758C18.7407 20.6438 18.8872 20.4569 18.97 20.24C19.1293 19.8172 19.3574 19.4235 19.645 19.075C19.7902 18.8935 19.8778 18.6727 19.8965 18.4411C19.9152 18.2094 19.8642 17.9774 19.75 17.775C19.7419 17.7569 19.7376 17.7373 19.7376 17.7175C19.7376 17.6977 19.7419 17.6781 19.75 17.66C19.7541 17.6407 19.7625 17.6225 19.7746 17.6069C19.7867 17.5913 19.8023 17.5787 19.82 17.57L20.875 16.96C20.8995 16.9532 20.9255 16.9532 20.95 16.96C20.975 16.9603 20.9996 16.9669 21.0214 16.9791C21.0432 16.9913 21.0617 17.0088 21.075 17.03C21.193 17.2319 21.3694 17.3935 21.5808 17.4934C21.7923 17.5933 22.029 17.627 22.26 17.59C22.7002 17.515 23.1498 17.515 23.59 17.59C23.8225 17.6214 24.059 17.5819 24.2687 17.4766C24.4783 17.3713 24.6513 17.2052 24.765 17C24.7748 16.9835 24.7877 16.9691 24.8031 16.9577C24.8185 16.9462 24.836 16.9379 24.8546 16.9333C24.8732 16.9286 24.8925 16.9277 24.9115 16.9306C24.9304 16.9334 24.9486 16.94 24.965 16.95L26.02 17.56C26.0377 17.5687 26.0533 17.5813 26.0654 17.5969C26.0775 17.6125 26.0859 17.6307 26.09 17.65C26.0981 17.6681 26.1024 17.6877 26.1024 17.7075C26.1024 17.7273 26.0981 17.7469 26.09 17.765C25.9749 17.9663 25.9234 18.1976 25.9421 18.4287C25.9608 18.6598 26.049 18.8799 26.195 19.06C26.4791 19.4119 26.7053 19.8069 26.865 20.23C26.9438 20.451 27.0878 20.6429 27.2779 20.7804C27.4681 20.9178 27.6954 20.9944 27.93 21C27.9499 20.9993 27.9697 21.0027 27.9882 21.01C28.0067 21.0173 28.0236 21.0283 28.0376 21.0424C28.0517 21.0564 28.0627 21.0733 28.07 21.0918C28.0773 21.1103 28.0807 21.1301 28.08 21.15V22.35Z" fill="#818181"/>
<path d="M22.915 19.47C22.4661 19.47 22.0272 19.6032 21.6539 19.8526C21.2806 20.102 20.9896 20.4566 20.8178 20.8713C20.646 21.2861 20.601 21.7426 20.6886 22.1829C20.7762 22.6232 20.9924 23.0277 21.3099 23.3452C21.6274 23.6626 22.0318 23.8788 22.4722 23.9664C22.9125 24.054 23.3689 24.009 23.7837 23.8372C24.1985 23.6654 24.553 23.3745 24.8025 23.0012C25.0519 22.6279 25.185 22.189 25.185 21.74C25.185 21.138 24.9459 20.5606 24.5202 20.1349C24.0944 19.7092 23.5171 19.47 22.915 19.47ZM22.915 23.01C22.6638 23.01 22.4183 22.9355 22.2094 22.796C22.0006 22.6565 21.8378 22.4581 21.7417 22.226C21.6456 21.994 21.6204 21.7386 21.6694 21.4923C21.7184 21.2459 21.8394 21.0196 22.017 20.842C22.1946 20.6644 22.4209 20.5434 22.6673 20.4944C22.9136 20.4454 23.169 20.4706 23.401 20.5667C23.6331 20.6628 23.8314 20.8256 23.971 21.0345C24.1105 21.2433 24.185 21.4888 24.185 21.74C24.1824 22.0751 24.0474 22.3956 23.8095 22.6316C23.5716 22.8676 23.2501 23 22.915 23V23.01Z" fill="#818181"/>
</svg>
