<svg width="25" height="25" viewBox="0 0 25 25" fill="none" xmlns="http://www.w3.org/2000/svg">
<path d="M12.8557 6.67705C12.6247 6.59902 12.3725 6.59902 12.1415 6.67705C11.99 6.72768 11.8524 6.8098 11.7386 6.91743L8.30664 10.1719C8.16471 10.3059 8.06511 10.475 8.01909 10.66C7.97307 10.8449 7.98248 11.0384 8.04624 11.2186L8.61494 12.8364L9.29619 12.6211L8.72808 11.0027C8.70699 10.9426 8.70394 10.8781 8.71927 10.8165C8.73461 10.7549 8.76771 10.6985 8.81488 10.6538L12.1397 7.50103V11.4255C11.8052 11.5084 11.514 11.7041 11.3205 11.9761C11.1271 12.2481 11.0447 12.5777 11.0887 12.9032C11.1327 13.2287 11.3002 13.5278 11.5598 13.7446C11.8193 13.9613 12.1532 14.0809 12.4989 14.0809C12.8446 14.0809 13.1785 13.9613 13.438 13.7446C13.6976 13.5278 13.8651 13.2287 13.9091 12.9032C13.9531 12.5777 13.8707 12.2481 13.6772 11.9761C13.4838 11.7041 13.1926 11.5084 12.8581 11.4255V7.50103L16.1823 10.6572C16.2295 10.7019 16.2626 10.7583 16.2779 10.8199C16.2932 10.8815 16.2902 10.946 16.2691 11.0061L14.3654 16.4273H10.6306L9.71823 13.8258C9.70442 13.7821 9.68151 13.7414 9.65084 13.7063C9.62018 13.6711 9.5824 13.6422 9.53973 13.6211C9.49706 13.6001 9.45037 13.5874 9.40244 13.5838C9.3545 13.5802 9.3063 13.5858 9.26068 13.6002C9.21506 13.6146 9.17296 13.6376 9.13686 13.6678C9.10077 13.6979 9.07142 13.7346 9.05056 13.7758C9.0297 13.8169 9.01775 13.8616 9.01541 13.9072C9.01308 13.9527 9.02042 13.9983 9.03698 14.0412L9.88764 16.4631C9.62014 16.5273 9.3828 16.6743 9.21313 16.8808C9.04346 17.0874 8.95115 17.3417 8.95078 17.6036V17.9491C8.95109 18.2611 9.08181 18.5603 9.31425 18.7809C9.54668 19.0016 9.86184 19.1257 10.1906 19.126H10.5449V21.5087C10.5449 21.78 10.6585 22.0402 10.8606 22.232C11.0626 22.4238 11.3367 22.5316 11.6225 22.5316H13.3747C13.6605 22.5316 13.9346 22.4238 14.1366 22.232C14.3387 22.0402 14.4522 21.78 14.4522 21.5087V19.126H14.8066C15.1354 19.1257 15.4505 19.0016 15.6829 18.7809C15.9154 18.5603 16.0461 18.2611 16.0464 17.9491V17.6036C16.046 17.3417 15.9537 17.0874 15.7841 16.8808C15.6144 16.6743 15.3771 16.5273 15.1096 16.4631L16.951 11.2209C17.0153 11.0404 17.0251 10.8464 16.979 10.661C16.933 10.4755 16.833 10.3061 16.6906 10.1719L13.2604 6.91572C13.1468 6.80817 13.0094 6.72605 12.8581 6.67535L12.8557 6.67705ZM13.7339 21.5087C13.7339 21.5991 13.696 21.6858 13.6287 21.7498C13.5613 21.8137 13.47 21.8497 13.3747 21.8497H11.6225C11.5272 21.8497 11.4359 21.8137 11.3685 21.7498C11.3012 21.6858 11.2633 21.5991 11.2633 21.5087V19.126H13.7339V21.5087ZM15.3281 17.6036V17.9491C15.3279 18.0803 15.2729 18.2061 15.1752 18.2989C15.0774 18.3917 14.9449 18.4439 14.8066 18.4441H10.1906C10.0523 18.4439 9.91978 18.3917 9.82203 18.2989C9.72428 18.2061 9.6693 18.0803 9.66914 17.9491V17.6036C9.6693 17.4723 9.72426 17.3465 9.822 17.2536C9.91973 17.1607 10.0523 17.1084 10.1906 17.1081H14.8066C14.9449 17.1084 15.0775 17.1607 15.1752 17.2536C15.2729 17.3465 15.3279 17.4723 15.3281 17.6036ZM13.2047 12.729C13.2047 12.8612 13.1634 12.9905 13.086 13.1004C13.0086 13.2103 12.8986 13.2959 12.77 13.3465C12.6413 13.3971 12.4997 13.4103 12.3631 13.3844C12.2266 13.3586 12.1011 13.2949 12.0027 13.2014C11.9042 13.1079 11.8372 12.9887 11.8101 12.8591C11.7831 12.7294 11.7971 12.595 11.8505 12.4729C11.9038 12.3508 11.9942 12.2465 12.11 12.1731C12.2259 12.0998 12.362 12.0607 12.5013 12.0608C12.6879 12.0609 12.8668 12.1314 12.9987 12.2567C13.1306 12.382 13.2047 12.5519 13.2047 12.729Z" fill="#818181"/>
<path d="M24.2321 13.1837H23.4838C23.5229 13.119 23.538 13.0438 23.5269 12.97C23.156 10.4403 21.8326 8.1236 19.8015 6.44841C17.7704 4.77323 15.169 3.85286 12.4784 3.8575C9.78771 3.86214 7.18984 4.79149 5.16517 6.47367C3.14051 8.15586 1.82601 10.4771 1.46476 13.0081C1.45632 13.0676 1.46458 13.1282 1.48871 13.1837H0.765554C0.670293 13.1837 0.578934 13.2196 0.511574 13.2835C0.444214 13.3475 0.406372 13.4342 0.406372 13.5246V15.3431C0.406372 15.4335 0.444214 15.5202 0.511574 15.5842C0.578934 15.6481 0.670293 15.684 0.765554 15.684H1.47554C1.45866 15.7321 1.45375 15.7833 1.46117 15.8335C1.6999 17.5281 2.36858 19.1424 3.40973 20.5376C3.46483 20.6113 3.54853 20.6613 3.64245 20.6765C3.73636 20.6917 3.83278 20.6708 3.91049 20.6185C3.98821 20.5662 4.04086 20.4868 4.05686 20.3976C4.07285 20.3085 4.05089 20.217 3.9958 20.1432C3.0222 18.8383 2.39669 17.3286 2.17295 15.7437C2.17001 15.7235 2.1652 15.7035 2.15858 15.684H2.68119C2.77645 15.684 2.86781 15.6481 2.93517 15.5842C3.00253 15.5202 3.04037 15.4335 3.04037 15.3431V13.5246C3.04037 13.4342 3.00253 13.3475 2.93517 13.2835C2.86781 13.2196 2.77645 13.1837 2.68119 13.1837H2.1514C2.16346 13.1568 2.17191 13.1285 2.17654 13.0996C2.51413 10.7316 3.74369 8.55973 5.63779 6.98577C7.5319 5.41181 9.96238 4.54222 12.4797 4.53786C14.997 4.53349 17.4308 5.39464 19.331 6.96202C21.2311 8.5294 22.469 10.697 22.8157 13.0638C22.8217 13.106 22.8361 13.1467 22.8582 13.1837H22.3165C22.2212 13.1837 22.1299 13.2196 22.0625 13.2835C21.9951 13.3475 21.9573 13.4342 21.9573 13.5246V15.3431C21.9573 15.4335 21.9951 15.5202 22.0625 15.5842C22.1299 15.6481 22.2212 15.684 22.3165 15.684H22.8427C22.8308 15.711 22.8226 15.7392 22.8181 15.7681C22.5496 17.6369 21.7237 19.3937 20.4378 20.8315C19.1519 22.2692 17.4596 23.3279 15.5606 23.8825C13.6616 24.4371 11.6351 24.4647 9.7202 23.9618C7.80527 23.4589 6.08179 22.4467 4.75307 21.0444C4.72252 21.0083 4.68451 20.9784 4.64139 20.9567C4.59827 20.935 4.55093 20.9218 4.50226 20.918C4.45359 20.9142 4.40463 20.9199 4.35835 20.9347C4.31207 20.9495 4.26946 20.9731 4.23311 21.004C4.19676 21.0349 4.16743 21.0726 4.14693 21.1147C4.12643 21.1567 4.11518 21.2023 4.11387 21.2487C4.11256 21.295 4.12121 21.3411 4.1393 21.3842C4.15739 21.4272 4.18454 21.4663 4.21909 21.4991C5.63951 22.998 7.48192 24.08 9.52898 24.6175C11.576 25.155 13.7423 25.1255 15.7723 24.5325C17.8023 23.9395 19.6112 22.8077 20.9857 21.2707C22.3603 19.7337 23.243 17.8556 23.5299 15.8579C23.5384 15.7984 23.5301 15.7378 23.506 15.6823H24.2297C24.325 15.6823 24.4163 15.6464 24.4837 15.5825C24.5511 15.5185 24.5889 15.4318 24.5889 15.3414V13.5246C24.5889 13.4346 24.5514 13.3482 24.4846 13.2843C24.4177 13.2205 24.327 13.1843 24.2321 13.1837ZM2.32201 15.0021H1.12474V13.8656H2.32201V15.0021ZM23.8729 15.0021H22.6757V13.8656H23.8729V15.0021Z" fill="#818181"/>
<path d="M1.554 2.95496C1.89011 2.95493 2.21717 2.85163 2.48629 2.66049C2.75541 2.46935 2.95212 2.20066 3.047 1.89459H11.0125V2.61401C11.0125 2.70443 11.0503 2.79116 11.1177 2.8551C11.185 2.91904 11.2764 2.95496 11.3716 2.95496H13.7662C13.8615 2.95496 13.9528 2.91904 14.0202 2.8551C14.0875 2.79116 14.1254 2.70443 14.1254 2.61401V1.89459H21.9502C22.0576 2.242 22.2958 2.53986 22.6193 2.7316C22.9429 2.92333 23.3294 2.9956 23.7054 2.93468C24.0814 2.87377 24.4208 2.6839 24.659 2.40113C24.8973 2.11837 25.0179 1.76239 24.9979 1.4008C24.9779 1.03921 24.8187 0.697182 24.5505 0.439653C24.2824 0.182125 23.924 0.0270318 23.5433 0.00382131C23.1627 -0.0193892 22.7863 0.0908994 22.4856 0.313746C22.185 0.536593 21.981 0.856481 21.9124 1.21267H14.1254V0.340957C14.1254 0.25053 14.0875 0.163806 14.0202 0.099864C13.9528 0.0359221 13.8615 0 13.7662 0H11.3716C11.2764 0 11.185 0.0359221 11.1177 0.099864C11.0503 0.163806 11.0125 0.25053 11.0125 0.340957V1.21267H3.08771C3.03469 0.936428 2.89985 0.680245 2.69897 0.474131C2.49809 0.268017 2.2395 0.120507 1.95349 0.0488803C1.66748 -0.0227461 1.36588 -0.0155234 1.08404 0.0697026C0.802194 0.154929 0.551768 0.314629 0.362096 0.530096C0.172425 0.745563 0.0513606 1.00788 0.0130858 1.28631C-0.0251891 1.56474 0.02091 1.84775 0.145983 2.10221C0.271056 2.35666 0.469925 2.57202 0.719292 2.72305C0.96866 2.87407 1.2582 2.95452 1.554 2.95496ZM23.4414 0.681915C23.6071 0.681915 23.7692 0.728574 23.907 0.815992C24.0448 0.90341 24.1522 1.02766 24.2157 1.17303C24.2791 1.3184 24.2957 1.47836 24.2633 1.63269C24.231 1.78701 24.1512 1.92877 24.034 2.04003C23.9168 2.15129 23.7674 2.22707 23.6049 2.25776C23.4423 2.28846 23.2738 2.2727 23.1206 2.21249C22.9675 2.15228 22.8366 2.05031 22.7445 1.91948C22.6524 1.78864 22.6033 1.63483 22.6033 1.47748C22.6033 1.26648 22.6916 1.06413 22.8487 0.914931C23.0059 0.765733 23.2191 0.681915 23.4414 0.681915ZM11.7308 0.681915H13.407V2.27305H11.7308V0.681915ZM1.554 0.681915C1.71976 0.681915 1.8818 0.728574 2.01962 0.815992C2.15744 0.90341 2.26486 1.02766 2.3283 1.17303C2.39173 1.3184 2.40833 1.47836 2.37599 1.63269C2.34365 1.78701 2.26383 1.92877 2.14662 2.04003C2.02941 2.15129 1.88008 2.22707 1.7175 2.25776C1.55493 2.28846 1.38642 2.2727 1.23328 2.21249C1.08014 2.15228 0.949244 2.05031 0.857153 1.91948C0.765063 1.78864 0.715909 1.63483 0.715909 1.47748C0.715909 1.26648 0.804208 1.06413 0.961381 0.914931C1.11855 0.765733 1.33173 0.681915 1.554 0.681915Z" fill="#818181"/>
</svg>
