<svg width="25" height="25" viewBox="0 0 25 25" fill="none" xmlns="http://www.w3.org/2000/svg">
<path fill-rule="evenodd" clip-rule="evenodd" d="M8.33333 9.16667C8.33333 8.70708 7.95958 8.33333 7.5 8.33333C7.04042 8.33333 6.66667 8.70708 6.66667 9.16667C6.66667 9.62625 7.04042 10 7.5 10C7.95958 10 8.33333 9.62625 8.33333 9.16667ZM11.25 6.66667H5.41667C5.18667 6.66667 5 6.85292 5 7.08333V12.0833C5 12.3137 5.18667 12.5 5.41667 12.5H6.25C6.48 12.5 6.66667 12.3137 6.66667 12.0833C6.66667 11.8529 6.48 11.6667 6.25 11.6667H5.83333V7.5H10.8333V11.0775L9.87792 10.1221C9.715 9.95917 9.45167 9.95917 9.28875 10.1221L7.62208 11.7887C7.45917 11.9517 7.45917 12.215 7.62208 12.3779C7.785 12.5408 8.04833 12.5408 8.21125 12.3779L9.58333 11.0058L10.9554 12.3779C11.035 12.4575 11.1417 12.5 11.25 12.5C11.3037 12.5 11.3579 12.49 11.4096 12.4683C11.565 12.4042 11.6667 12.2517 11.6667 12.0833V7.08333C11.6667 6.85292 11.48 6.66667 11.25 6.66667ZM19.5833 14.1667H16.25C16.02 14.1667 15.8333 14.3529 15.8333 14.5833C15.8333 14.8137 16.02 15 16.25 15H19.5833C19.8133 15 20 14.8137 20 14.5833C20 14.3529 19.8133 14.1667 19.5833 14.1667ZM13.75 12.5H18.75C18.98 12.5 19.1667 12.3137 19.1667 12.0833C19.1667 11.8529 18.98 11.6667 18.75 11.6667H13.75C13.52 11.6667 13.3333 11.8529 13.3333 12.0833C13.3333 12.3137 13.52 12.5 13.75 12.5ZM17.9167 6.66667H13.75C13.52 6.66667 13.3333 6.85292 13.3333 7.08333C13.3333 7.31375 13.52 7.5 13.75 7.5H17.9167C18.1467 7.5 18.3333 7.31375 18.3333 7.08333C18.3333 6.85292 18.1467 6.66667 17.9167 6.66667ZM19.5833 9.16667H17.0833C16.8533 9.16667 16.6667 9.35292 16.6667 9.58333C16.6667 9.81375 16.8533 10 17.0833 10H19.5833C19.8133 10 20 9.81375 20 9.58333C20 9.35292 19.8133 9.16667 19.5833 9.16667ZM13.75 10H15.4167C15.6467 10 15.8333 9.81375 15.8333 9.58333C15.8333 9.35292 15.6467 9.16667 15.4167 9.16667H13.75C13.52 9.16667 13.3333 9.35292 13.3333 9.58333C13.3333 9.81375 13.52 10 13.75 10ZM11.6667 14.5833C11.6667 14.8137 11.8533 15 12.0833 15H14.5833C14.8133 15 15 14.8137 15 14.5833C15 14.3529 14.8133 14.1667 14.5833 14.1667H12.0833C11.8533 14.1667 11.6667 14.3529 11.6667 14.5833ZM5.41667 15H10.4167C10.6467 15 10.8333 14.8137 10.8333 14.5833C10.8333 14.3529 10.6467 14.1667 10.4167 14.1667H5.41667C5.18667 14.1667 5 14.3529 5 14.5833C5 14.8137 5.18667 15 5.41667 15ZM14.0446 22.6221C13.8817 22.4592 13.6183 22.4592 13.4554 22.6221C13.2925 22.785 13.2925 23.0483 13.4554 23.2112L15.1221 24.8779C15.2033 24.9592 15.31 25 15.4167 25C15.5233 25 15.63 24.9592 15.7112 24.8779C15.8742 24.715 15.8742 24.4517 15.7112 24.2887L14.0446 22.6221ZM12.5 20C12.27 20 12.0833 20.1862 12.0833 20.4167V21.4942L9.28875 24.2887C9.12583 24.4517 9.12583 24.715 9.28875 24.8779C9.37 24.9592 9.47667 25 9.58333 25C9.69 25 9.79667 24.9592 9.87792 24.8779L12.7946 21.9612C12.8729 21.8833 12.9167 21.7775 12.9167 21.6667V20.4167C12.9167 20.1862 12.73 20 12.5 20ZM25 1.25V2.91667C25 3.14708 24.8133 3.33333 24.5833 3.33333H24.1667V17.0833C24.1667 18.2321 23.2321 19.1667 22.0833 19.1667H2.91667C1.76792 19.1667 0.833333 18.2321 0.833333 17.0833V4.58333C0.833333 4.35292 1.02 4.16667 1.25 4.16667C1.48 4.16667 1.66667 4.35292 1.66667 4.58333V17.0833C1.66667 17.7725 2.2275 18.3333 2.91667 18.3333H22.0833C22.7725 18.3333 23.3333 17.7725 23.3333 17.0833V2.91667C23.3333 2.68625 23.52 2.5 23.75 2.5H24.1667V1.66667H0.833333V2.5H22.0833C22.3133 2.5 22.5 2.68625 22.5 2.91667C22.5 3.14708 22.3133 3.33333 22.0833 3.33333H0.416667C0.186667 3.33333 0 3.14708 0 2.91667V1.25C0 1.01958 0.186667 0.833333 0.416667 0.833333H12.0833V0.416667C12.0833 0.18625 12.27 0 12.5 0C12.73 0 12.9167 0.18625 12.9167 0.416667V0.833333H24.5833C24.8133 0.833333 25 1.01958 25 1.25Z" fill="#818181"/>
</svg>
