<svg width="25" height="25" viewBox="0 0 25 25" fill="none" xmlns="http://www.w3.org/2000/svg">
<path d="M23.156 20.9931H1.84399C0.827181 20.9931 0 20.2142 0 19.2568V17.7376C0 17.5992 0.119096 17.4871 0.265957 17.4871H24.734C24.881 17.4871 25 17.5992 25 17.7376V19.2568C25 20.2142 24.1728 20.9931 23.156 20.9931ZM0.531915 17.988V19.2568C0.531915 19.9381 1.12048 20.4923 1.84399 20.4923H23.1561C23.8796 20.4923 24.4681 19.9381 24.4681 19.2568V17.988H0.531915Z" fill="#818181"/>
<path d="M24.734 17.988H0.265957C0.119096 17.988 0 17.8759 0 17.7376V6.54335C0 5.39723 0.990266 4.46478 2.20745 4.46478H11.4629C11.6097 4.46478 11.7288 4.57693 11.7288 4.71521C11.7288 4.8535 11.6097 4.96564 11.4629 4.96564H2.20745C1.28356 4.96564 0.531915 5.67341 0.531915 6.54335V17.4871H24.4681V6.54335C24.4681 5.67341 23.7164 4.96564 22.7926 4.96564H16.7286C16.5816 4.96564 16.4626 4.8535 16.4626 4.71521C16.4626 4.57693 16.5816 4.46478 16.7286 4.46478H22.7926C24.0097 4.46478 25 5.39723 25 6.54335V17.7376C25 17.8759 24.881 17.988 24.734 17.988Z" fill="#818181"/>
<path d="M8.32481 10.3995C8.25529 10.3995 8.18737 10.3739 8.13673 10.3262C8.06753 10.2611 8.04194 10.1654 8.07008 10.0772L9.19843 6.53561C9.21109 6.4959 9.23396 6.45978 9.26508 6.43048L15.4711 0.586807C15.873 0.208408 16.4073 0 16.9755 0C17.5439 0 18.0781 0.208408 18.48 0.586807C18.8819 0.965206 19.1032 1.46832 19.1032 2.00344C19.1032 2.53861 18.8819 3.04167 18.48 3.42012L12.2741 9.26375C12.243 9.29305 12.2046 9.31463 12.1624 9.3265L8.40125 10.389C8.37609 10.3961 8.35035 10.3995 8.32481 10.3995ZM9.68859 6.73996L8.72146 9.77562L11.9453 8.86491L18.1039 3.06591C18.4053 2.78207 18.5713 2.40478 18.5713 2.00344C18.5713 1.6021 18.4053 1.22475 18.1039 0.940965C17.8025 0.657128 17.4018 0.500859 16.9755 0.500859C16.5493 0.500859 16.1485 0.657178 15.8472 0.940965L9.68859 6.73996Z" fill="#818181"/>
<path d="M10.3935 8.08807C10.087 8.08807 9.78056 7.97823 9.54721 7.75855C9.08062 7.31915 9.08062 6.60422 9.54721 6.16482C9.65104 6.06705 9.81945 6.06705 9.92333 6.16482C10.0272 6.26264 10.0272 6.42116 9.92333 6.51898C9.66407 6.76309 9.66407 7.16028 9.92333 7.40439C10.1826 7.64851 10.6044 7.64851 10.8636 7.40439C10.9676 7.30663 11.1359 7.30668 11.2398 7.40439C11.3436 7.50221 11.3436 7.66078 11.2398 7.75855C11.0065 7.97823 10.7 8.08807 10.3935 8.08807Z" fill="#818181"/>
<path d="M11.7099 9.32818C11.3902 9.32818 11.0897 9.21093 10.8636 8.99811C10.6375 8.7853 10.5131 8.50226 10.5131 8.20125C10.5131 7.90023 10.6376 7.61719 10.8636 7.40438L14.1736 4.28768C14.2774 4.18991 14.4459 4.18991 14.5497 4.28768C14.6535 4.3855 14.6535 4.54407 14.5497 4.64184L11.2397 7.75854C11.1141 7.87679 11.0449 8.03401 11.0449 8.20125C11.0449 8.36843 11.1141 8.5257 11.2397 8.64391C11.3653 8.76216 11.5323 8.82732 11.7098 8.82732C11.8874 8.82732 12.0544 8.76221 12.18 8.64391C12.2838 8.54614 12.4523 8.54614 12.5561 8.64391C12.66 8.74172 12.66 8.90025 12.5561 8.99806C12.3301 9.21093 12.0296 9.32818 11.7099 9.32818Z" fill="#818181"/>
<path d="M17.5398 4.20177C17.4718 4.20177 17.4036 4.17732 17.3518 4.12844L14.7189 1.64929C14.615 1.55147 14.615 1.3929 14.7189 1.29513C14.8227 1.19736 14.9912 1.19736 15.095 1.29513L17.7278 3.77428C17.8317 3.8721 17.8317 4.03067 17.7278 4.12844C17.676 4.17732 17.6078 4.20177 17.5398 4.20177Z" fill="#818181"/>
<path d="M18.3511 15.4837H14.0958C13.2159 15.4837 12.5 14.8096 12.5 13.9811C12.5 13.1526 13.2159 12.4785 14.0958 12.4785H19.9468C20.5334 12.4785 21.0107 12.0291 21.0107 11.4768V11.4013C21.0107 10.8489 20.5334 10.3995 19.9468 10.3995H8.32492C8.17806 10.3995 8.05896 10.2874 8.05896 10.1491C8.05896 10.0108 8.17806 9.89868 8.32492 9.89868H19.9468C20.8267 9.89868 21.5426 10.5727 21.5426 11.4013V11.4768C21.5426 12.3053 20.8267 12.9794 19.9468 12.9794H14.0958C13.5092 12.9794 13.0319 13.4287 13.0319 13.9811C13.0319 14.5334 13.5092 14.9828 14.0958 14.9828H18.3511C18.498 14.9828 18.617 15.0949 18.617 15.2332C18.617 15.3716 18.498 15.4837 18.3511 15.4837Z" fill="#818181"/>
<path d="M8.24468 15.7341H0.265957C0.119096 15.7341 0 15.622 0 15.4837C0 15.3454 0.119096 15.2333 0.265957 15.2333H8.24468C8.39154 15.2333 8.51064 15.3454 8.51064 15.4837C8.51064 15.622 8.39154 15.7341 8.24468 15.7341Z" fill="#818181"/>
<path d="M8.24468 14.2315H0.265957C0.119096 14.2315 0 14.1194 0 13.9811C0 13.8427 0.119096 13.7307 0.265957 13.7307H8.24468C8.39154 13.7307 8.51064 13.8427 8.51064 13.9811C8.51064 14.1194 8.39154 14.2315 8.24468 14.2315Z" fill="#818181"/>
<path d="M8.24468 12.7289H0.265957C0.119096 12.7289 0 12.6169 0 12.4785C0 12.3402 0.119096 12.2281 0.265957 12.2281H8.24468C8.39154 12.2281 8.51064 12.3402 8.51064 12.4785C8.51064 12.6169 8.39154 12.7289 8.24468 12.7289Z" fill="#818181"/>
<path d="M15.4255 23.9983H9.57443C9.42757 23.9983 9.30847 23.8862 9.30847 23.7478V20.7427C9.30847 20.6043 9.42757 20.4922 9.57443 20.4922H15.4255C15.5724 20.4922 15.6915 20.6043 15.6915 20.7427V23.7478C15.6915 23.8862 15.5724 23.9983 15.4255 23.9983ZM9.84039 23.4974H15.1595V20.9931H9.84039V23.4974Z" fill="#818181"/>
<path d="M14.0958 23.9983H10.9043C10.7574 23.9983 10.6383 23.8862 10.6383 23.7478V20.7427C10.6383 20.6043 10.7574 20.4922 10.9043 20.4922H14.0958C14.2427 20.4922 14.3617 20.6043 14.3617 20.7427V23.7478C14.3617 23.8862 14.2427 23.9983 14.0958 23.9983ZM11.1702 23.4974H13.8298V20.9931H11.1702V23.4974Z" fill="#818181"/>
<path d="M16.2234 25H8.77663C8.33669 25 7.97876 24.663 7.97876 24.2487C7.97876 23.8345 8.33669 23.4974 8.77663 23.4974H16.2234C16.6634 23.4974 17.0213 23.8345 17.0213 24.2487C17.0213 24.663 16.6634 25 16.2234 25ZM8.77663 23.9983C8.62998 23.9983 8.51067 24.1106 8.51067 24.2487C8.51067 24.3868 8.62998 24.4992 8.77663 24.4992H16.2234C16.3701 24.4992 16.4894 24.3868 16.4894 24.2487C16.4894 24.1106 16.3701 23.9983 16.2234 23.9983H8.77663Z" fill="#818181"/>
</svg>
